<svg xmlns="http://www.w3.org/2000/svg" width="1024" height="1024" viewBox="0 0 1024 1024">
  <defs>
    <linearGradient id="tile" x1="160" y1="120" x2="864" y2="904" gradientUnits="userSpaceOnUse">
      <stop stop-color="#5B5CEB"/>
      <stop offset="1" stop-color="#4338CA"/>
    </linearGradient>
    <linearGradient id="bar" x1="0" y1="0" x2="1" y2="1">
      <stop stop-color="#7DD3FC"/>
      <stop offset="1" stop-color="#38BDF8"/>
    </linearGradient>
    <filter id="shadow" x="-20%" y="-20%" width="140%" height="150%">
      <feDropShadow dx="0" dy="28" stdDeviation="30" flood-color="#1E1B4B" flood-opacity=".2"/>
    </filter>
  </defs>
  <rect width="1024" height="1024" rx="228" fill="#F7F7FC"/>
  <rect x="116" y="116" width="792" height="792" rx="208" fill="url(#tile)" filter="url(#shadow)"/>
  <path d="M260 714V550c0-28 22-50 50-50h58c28 0 50 22 50 50v164H260Zm196 0V410c0-28 22-50 50-50h58c28 0 50 22 50 50v304H456Zm196 0V302c0-28 22-50 50-50h58c28 0 50 22 50 50v412H652Z" fill="url(#bar)"/>
  <path d="M240 758h544" stroke="#EEF2FF" stroke-width="36" stroke-linecap="round" opacity=".95"/>
  <circle cx="770" cy="280" r="74" fill="#FB7185"/>
  <circle cx="770" cy="280" r="29" fill="#FFF1F2"/>
</svg>
